# Blender v2.61 (sub 0) OBJ File: 'lantern.blend'
# www.blender.org
o Cube
v 0.500000 0.500000 -0.500000
v 0.500000 -0.500000 -0.500000
v -0.500000 -0.500000 -0.500000
v -0.500000 0.500000 -0.500000
v 0.500000 0.500000 0.000000
v 0.500000 -0.500000 0.000000
v -0.333334 -0.500000 0.000000
v -0.500000 -0.333333 0.000000
v -0.500000 0.333333 0.000000
v 0.333333 0.333333 0.000000
v 0.333333 -0.500000 0.000000
v 0.333333 -0.333334 0.000000
v -0.333333 -0.333333 0.000000
v 0.500000 -0.333334 0.000000
v 0.500000 0.333333 0.000000
v 0.333333 0.500000 0.000000
v -0.333333 0.500000 0.000000
v -0.333333 0.333333 0.000000
v -0.500000 0.500000 0.000000
v -0.500000 -0.500000 0.000000
v 0.500000 0.333333 0.500000
v 0.500000 0.500000 0.500000
v 0.500000 -0.333334 0.500000
v 0.500000 -0.500000 0.500000
v 0.333333 0.500000 0.500000
v -0.333333 0.500000 0.500000
v -0.500000 0.500000 0.500000
v 0.333333 -0.500000 0.500000
v -0.333334 -0.500000 0.500000
v -0.500000 -0.500000 0.500000
v -0.500000 -0.333333 0.500000
v -0.500000 0.333333 0.500000
v -0.333333 0.333333 0.500000
v 0.333333 0.333333 0.500000
v -0.333333 -0.333333 0.500000
v 0.333333 -0.333334 0.500000
v -0.333333 0.000000 0.000000
v 0.000000 0.333333 0.000000
v 0.333333 -0.000000 0.000000
v -0.000000 -0.333333 0.000000
v -0.000000 -0.000000 -0.138496
v -0.333333 0.166667 0.000000
v -0.333333 -0.166667 0.000000
v 0.166667 0.333333 0.000000
v -0.166667 0.333333 0.000000
v 0.333333 0.166666 0.000000
v 0.333333 -0.166667 0.000000
v 0.166666 -0.333333 0.000000
v -0.166667 -0.333333 0.000000
v -0.000000 -0.166667 -0.090667
v -0.166667 -0.000000 -0.090667
v -0.000000 0.166667 -0.090667
v 0.166667 -0.000000 -0.090667
v -0.166667 -0.166667 -0.059237
v -0.166667 0.166667 -0.059237
v 0.166667 -0.166667 -0.059237
v 0.166667 0.166666 -0.059237
vn 0.000000 0.000000 -1.000000
vn 1.000000 -0.000000 0.000000
vn -0.000000 -1.000000 -0.000000
vn -1.000000 0.000000 -0.000000
vn 0.000000 1.000000 0.000000
vn 1.000000 -0.000001 0.000000
vn -0.000001 -1.000000 0.000000
vn -1.000000 0.000001 0.000000
vn 0.000001 1.000000 0.000000
vn 0.000000 -0.000000 1.000000
vn 0.172350 0.172350 0.969841
vn 0.408638 0.085680 0.908666
vn 0.085680 0.408638 0.908666
vn 0.225377 0.225376 0.947845
vn 0.408638 -0.085680 0.908666
vn 0.172350 -0.172350 0.969841
vn 0.225376 -0.225377 0.947845
vn 0.085680 -0.408638 0.908666
vn -0.085680 0.408638 0.908666
vn -0.225376 0.225377 0.947845
vn -0.172350 0.172350 0.969841
vn -0.408638 0.085680 0.908666
vn -0.225377 -0.225376 0.947845
vn -0.085680 -0.408638 0.908666
vn -0.408638 -0.085680 0.908666
vn -0.172350 -0.172350 0.969841
s off
f 1//1 2//1 3//1
f 1//1 3//1 4//1
f 1//2 5//2 6//2
f 1//2 6//2 2//2
f 2//3 6//3 20//3
f 2//3 20//3 3//3
f 3//4 20//4 19//4
f 3//4 19//4 4//4
f 1//5 4//5 19//5
f 1//5 19//5 5//5
f 15//2 5//2 22//2
f 15//2 22//2 21//2
f 6//6 14//6 23//6
f 6//6 23//6 24//6
f 5//5 16//5 25//5
f 5//5 25//5 22//5
f 17//5 19//5 27//5
f 17//5 27//5 26//5
f 11//7 6//7 24//7
f 11//7 24//7 28//7
f 20//7 7//7 29//7
f 20//7 29//7 30//7
f 8//4 20//4 30//4
f 8//4 30//4 31//4
f 19//4 9//4 32//4
f 19//4 32//4 27//4
f 9//3 18//3 33//3
f 9//3 33//3 32//3
f 18//2 17//2 26//2
f 18//2 26//2 33//2
f 16//8 10//8 34//8
f 16//8 34//8 25//8
f 10//3 15//3 21//3
f 10//3 21//3 34//3
f 13//5 8//5 31//5
f 13//5 31//5 35//5
f 14//9 12//9 36//9
f 14//9 36//9 23//9
f 7//6 13//6 35//6
f 7//6 35//6 29//6
f 12//4 11//4 28//4
f 12//4 28//4 36//4
f 26//10 27//10 32//10
f 26//10 32//10 33//10
f 22//10 25//10 34//10
f 22//10 34//10 21//10
f 35//10 31//10 30//10
f 35//10 30//10 29//10
f 23//10 36//10 28//10
f 23//10 28//10 24//10
f 43//11 13//11 49//11
f 43//11 49//11 54//11
f 37//12 43//12 54//12
f 37//12 54//12 51//12
f 54//13 49//13 40//13
f 54//13 40//13 50//13
f 51//14 54//14 50//14
f 51//14 50//14 41//14
f 42//15 37//15 51//15
f 42//15 51//15 55//15
f 18//16 42//16 55//16
f 18//16 55//16 45//16
f 55//17 51//17 41//17
f 55//17 41//17 52//17
f 45//18 55//18 52//18
f 45//18 52//18 38//18
f 50//19 40//19 48//19
f 50//19 48//19 56//19
f 41//20 50//20 56//20
f 41//20 56//20 53//20
f 56//21 48//21 12//21
f 56//21 12//21 47//21
f 53//22 56//22 47//22
f 53//22 47//22 39//22
f 52//23 41//23 53//23
f 52//23 53//23 57//23
f 38//24 52//24 57//24
f 38//24 57//24 44//24
f 57//25 53//25 39//25
f 57//25 39//25 46//25
f 44//26 57//26 46//26
f 44//26 46//26 10//26
f 13//10 18//10 9//10
f 13//10 9//10 8//10
f 11//10 12//10 13//10
f 11//10 13//10 7//10
f 12//10 14//10 15//10
f 12//10 15//10 10//10
f 10//10 16//10 17//10
f 10//10 17//10 18//10
